<?xml version="1.0" encoding="UTF-8" standalone="no"?>
<svg
   viewBox="0 0 117.81033 117.67006"
   version="1.1"
   id="svg32"
   width="117.81033"
   height="117.67005"
   xmlns="http://www.w3.org/2000/svg"
   xmlns:svg="http://www.w3.org/2000/svg">
  <defs
     id="defs8">
    <style
       id="style1">&#10;      .cls-1 {&#10;        filter: url(#outer-glow-3);&#10;      }&#10;&#10;      .cls-1, .cls-2, .cls-3, .cls-4 {&#10;        fill: none;&#10;        stroke-miterlimit: 10;&#10;        stroke-width: 5px;&#10;      }&#10;&#10;      .cls-1, .cls-2, .cls-4 {&#10;        stroke: #fff;&#10;      }&#10;&#10;      .cls-5 {&#10;        fill: #fff;&#10;        stroke-width: 0px;&#10;      }&#10;&#10;      .cls-2 {&#10;        filter: url(#outer-glow-1);&#10;      }&#10;&#10;      .cls-6 {&#10;        opacity: .41;&#10;      }&#10;&#10;      .cls-3 {&#10;        filter: url(#outer-glow-2);&#10;        stroke: #e0aaff;&#10;      }&#10;&#10;      .cls-4 {&#10;        filter: url(#outer-glow-4);&#10;      }&#10;    </style>
  </defs>
  <g
     id="obrecze"
     transform="translate(-252.18972,-664.07995)">
    <g
       id="g16">
      <path
         class="cls-5"
         d="m 314.32,664.15 c -0.9,-0.05 -1.81,-0.07 -2.72,-0.07 -32.86,-0.04 -59.31,26.02 -59.41,58.55 -0.1,32.57 26.28,59.03 58.93,59.12 0.93,0 1.86,-0.02 2.79,-0.07 31.14,-1.37 56.04,-27.15 56.09,-58.71 0.04,-31.54 -24.67,-57.36 -55.68,-58.82 z m 34.79,76.02 c -0.09,1.17 -0.88,2.75 -1.84,3.29 -4.72,2.68 -9.61,5.05 -14.42,7.56 -2.28,1.18 -3.89,0.67 -5,-1.68 -0.63,-1.32 -1.44,-2.55 -2.19,-3.86 2.14,-1.12 4.04,-2.11 5.95,-3.1 -0.04,-0.21 -0.07,-0.43 -0.11,-0.64 -0.83,0 -1.76,-0.25 -2.47,0.03 -5.75,2.29 -11.49,3.48 -17.23,3.55 -6.11,0.09 -12.23,-1.12 -18.34,-3.65 -0.66,-0.28 -1.51,-0.11 -2.27,-0.15 -0.07,0.27 -0.14,0.54 -0.21,0.82 1.86,0.97 3.73,1.95 5.99,3.12 -1.11,1.84 -2.11,3.73 -3.38,5.43 -0.37,0.5 -1.7,0.86 -2.25,0.59 -5.59,-2.71 -11.14,-5.52 -16.62,-8.45 -0.67,-0.36 -1.17,-1.56 -1.24,-2.41 -1.17,-14.65 2.49,-28.07 10.47,-40.34 0.55,-0.86 1.48,-1.7 2.42,-2.03 3.91,-1.37 7.89,-2.56 11.85,-3.77 1.62,-0.5 2.91,-0.21 3.47,1.65 0.48,1.58 1.52,1.91 3.18,1.84 2.4,-0.1 4.8,-0.15 7.2,-0.13 1.84,0 3.69,0.05 5.53,0.12 1.72,0.06 2.86,-0.2 3.37,-1.97 0.49,-1.71 1.73,-2.01 3.25,-1.53 4.06,1.27 8.13,2.49 12.13,3.9 0.92,0.33 1.8,1.22 2.36,2.08 7.89,12.08 11.55,25.3 10.4,39.73 z"
         id="path14" />
      <path
         class="cls-5"
         d="m 330.64,725.85 c 0,4.2 -3.03,7.67 -6.69,7.67 -3.65,0 -6.82,-3.54 -6.81,-7.62 0,-4.14 3.08,-7.6 6.77,-7.6 3.79,0 6.74,3.3 6.73,7.55 z"
         id="path15" />
      <path
         class="cls-5"
         d="m 305.49,725.83 c 0,4.11 -3.11,7.66 -6.76,7.69 -3.68,0.03 -6.78,-3.43 -6.8,-7.58 -0.01,-4.23 2.95,-7.61 6.7,-7.64 3.71,-0.03 6.85,3.43 6.86,7.53 z"
         id="path16" />
    </g>
    <path
       style="fill:#412d84;fill-opacity:1;stroke:#301d67;stroke-width:0;stroke-linecap:round;stroke-linejoin:round;stroke-miterlimit:0;paint-order:stroke fill markers"
       d="m 31.15984,83.167762 c -4.462131,-2.275312 -8.464527,-4.478047 -8.894215,-4.894973 -0.724051,-0.702543 -0.779173,-1.250496 -0.752884,-7.484168 0.03342,-7.923224 0.668043,-11.99974 2.923357,-18.778096 2.344325,-7.045876 6.984985,-15.870854 9.041726,-17.194325 1.495228,-0.96215 13.622416,-4.58591 14.458761,-4.320465 0.422151,0.133986 1.014882,0.835566 1.317181,1.559068 0.302298,0.723502 0.85754,1.470379 1.233871,1.659727 0.794396,0.399695 16.396605,0.329694 17.320547,-0.07771 0.341375,-0.150526 0.868719,-0.823787 1.171875,-1.496134 0.970976,-2.153464 1.219652,-2.147051 8.62198,0.222373 7.847723,2.511991 7.967922,2.596807 10.871914,7.671443 4.765422,8.32743 7.335465,16.458613 8.227141,26.029296 0.487633,5.233918 0.183434,10.388965 -0.70275,11.908938 -0.704211,1.207859 -15.81534,9.331953 -17.357793,9.331953 -1.114711,0 -2.095973,-0.98952 -3.60509,-3.63543 -1.273179,-2.232238 -1.180836,-2.407457 2.093453,-3.972426 4.430512,-2.117593 2.074215,-2.973113 -3.258336,-1.183035 -9.849984,3.306531 -19.681541,3.30241 -29.400063,-0.01232 -4.363539,-1.488289 -5.412356,-1.632879 -5.735529,-0.790703 -0.150078,0.391094 0.674261,1.050816 2.707123,2.166515 l 2.922909,1.604184 -1.066302,1.959149 c -1.285013,2.360992 -2.618783,3.86407 -3.428817,3.86407 -0.328402,0 -4.247928,-1.861617 -8.710059,-4.136926 z M 50.035225,68.473533 c 2.113449,-1.444374 3.053453,-3.243625 3.218243,-6.159996 0.116222,-2.056841 -0.01964,-2.942248 -0.635913,-4.144289 -2.829892,-5.519676 -9.676441,-5.500712 -12.230819,0.03388 -0.86714,1.878838 -0.948379,5.065859 -0.17624,6.913849 0.7207,1.724877 2.79071,3.748412 4.308452,4.211718 1.646067,0.50248 4.082389,0.124789 5.516277,-0.855159 z m 24.228873,0.505717 c 3.231031,-1.467269 4.983211,-5.322787 4.1195,-9.06459 -0.848828,-3.677335 -3.30482,-5.813097 -6.684688,-5.813097 -1.893566,0 -3.32673,0.666233 -4.756648,2.21122 -1.328535,1.435443 -1.752508,2.309409 -2.080051,4.287755 -0.541375,3.269882 1.19952,6.796306 4.071367,8.247119 2.104204,1.063011 3.218883,1.090527 5.33052,0.131593 z"
       id="path1"
       transform="translate(252.18972,664.07995)" />
  </g>
</svg>
