<?xml version="1.0" encoding="UTF-8" standalone="no"?>
<svg
   viewBox="0 0 118.31001 118.26004"
   version="1.1"
   id="svg32"
   width="118.31001"
   height="118.26003"
   xmlns="http://www.w3.org/2000/svg"
   xmlns:svg="http://www.w3.org/2000/svg">
  <defs
     id="defs8">
    <style
       id="style1">&#10;      .cls-1 {&#10;        filter: url(#outer-glow-3);&#10;      }&#10;&#10;      .cls-1, .cls-2, .cls-3, .cls-4 {&#10;        fill: none;&#10;        stroke-miterlimit: 10;&#10;        stroke-width: 5px;&#10;      }&#10;&#10;      .cls-1, .cls-2, .cls-4 {&#10;        stroke: #fff;&#10;      }&#10;&#10;      .cls-5 {&#10;        fill: #fff;&#10;        stroke-width: 0px;&#10;      }&#10;&#10;      .cls-2 {&#10;        filter: url(#outer-glow-1);&#10;      }&#10;&#10;      .cls-6 {&#10;        opacity: .41;&#10;      }&#10;&#10;      .cls-3 {&#10;        filter: url(#outer-glow-2);&#10;        stroke: #e0aaff;&#10;      }&#10;&#10;      .cls-4 {&#10;        filter: url(#outer-glow-4);&#10;      }&#10;    </style>
  </defs>
  <g
     id="obrecze"
     transform="translate(-532332.63,-720663.91)">
    <g
       id="g13"
       transform="translate(532056.81,720167.01)"
       style="display:inline">
      <path
         class="cls-5"
         d="m 351.6,499.27 v 0 c -5.26,-1.54 -10.82,-2.37 -16.57,-2.37 -32.74,-0.03 -59.22,26.42 -59.21,59.15 0,27.85 19.25,51.19 45.18,57.45 4.46,1.08 9.12,1.66 13.91,1.66 32.73,0.02 59.23,-26.44 59.22,-59.15 -0.01,-26.9 -17.95,-49.58 -42.53,-56.74 z m 18.29,71.36 c -0.11,12.05 -8.55,20.3 -20.61,20.31 -4.79,0.01 -9.57,0.01 -14.36,0.01 -3.21,0 -6.41,0.01 -9.62,0.01 -1.74,0 -3.49,0 -5.23,-0.02 -11.25,-0.07 -19.82,-8.36 -19.99,-19.6 -0.16,-10.33 -0.15,-20.67 -0.01,-31 0.15,-10.51 8.52,-18.98 19.04,-19.18 8.3,-0.15 16.6,-0.19 24.9,-0.1 2.25,0.03 4.51,0.06 6.76,0.11 10.8,0.22 19.04,8.79 19.12,19.6 0.08,9.96 0.09,19.91 0,29.86 z"
         id="path11" />
      <path
         class="cls-5"
         d="m 363.23,541.5 c -0.01,-1.29 -0.11,-2.62 -0.42,-3.88 -1.43,-5.91 -6.55,-9.84 -12.96,-9.87 -2.67,-0.02 -5.33,-0.02 -7.99,-0.02 -7.24,-0.01 -14.47,0.02 -21.71,0.03 -7.74,0.01 -13.41,5.62 -13.45,13.34 -0.04,9.84 -0.07,19.68 -0.07,29.52 0,7.94 5.61,13.59 13.53,13.65 2.19,0.01 4.38,0.01 6.57,0.01 2.76,0 5.52,-0.01 8.28,-0.01 4.84,0.01 9.68,0.02 14.52,0 8.14,-0.03 13.67,-5.47 13.71,-13.57 0.04,-9.73 0.02,-19.47 -0.01,-29.2 z m -28.14,32.51 c -2.03,0 -3.98,-0.32 -5.8,-0.92 -7.19,-2.35 -12.3,-8.97 -12.32,-16.87 0,-10.22 7.89,-18.2 18.04,-18.22 1.22,0 2.42,0.12 3.58,0.36 8.16,1.67 14.39,8.98 14.41,17.63 0.01,9.93 -8.03,18.03 -17.91,18.02 z m 18.14,-32.96 c -2.07,-0.07 -3.65,-1.75 -3.61,-3.83 0.03,-2.07 1.67,-3.69 3.74,-3.7 2.13,0 3.82,1.7 3.79,3.83 -0.04,2.12 -1.79,3.78 -3.92,3.7 z"
         id="path12" />
      <path
         class="cls-5"
         d="m 346.34,556.17 c -0.06,6.29 -5.28,11.35 -11.59,11.22 -1.37,-0.03 -2.68,-0.3 -3.88,-0.76 -4.31,-1.67 -7.32,-5.86 -7.27,-10.75 0.06,-6.31 5.24,-11.31 11.59,-11.22 0.52,0.01 1.03,0.05 1.53,0.13 5.49,0.83 9.68,5.63 9.62,11.38 z"
         id="path13" />
    </g>
    <path
       style="fill:#301d67;fill-opacity:1;stroke:#000000;stroke-width:0;stroke-linecap:round;stroke-linejoin:round;stroke-miterlimit:0;stroke-dasharray:none;paint-order:stroke fill markers"
       d="M 40.774864,93.607873 C 38.668466,93.248622 35.710503,92.172853 33.881849,91.100984 33.021176,90.596496 31.310178,89.189367 30.079629,87.974028 28.224094,86.141425 27.624405,85.316505 26.565666,83.14029 25.811346,81.589801 25.123341,79.66873 24.883992,78.444659 24.34727,75.69977 24.04956,56.866544 24.388418,47.094417 c 0.236262,-6.813442 0.28915,-7.300499 1.031796,-9.50208 1.57403,-4.666229 5.28439,-8.950635 9.570889,-11.051643 4.414888,-2.163937 3.63066,-2.095791 24.118605,-2.095791 20.302994,0 19.625994,-0.05512 23.855114,1.942326 3.998968,1.888745 7.15612,5.080957 9.055633,9.156196 1.921582,4.122582 1.893156,3.766883 1.883257,23.566283 -0.0088,17.563701 -0.01761,17.846814 -0.623743,20.009459 -1.678771,5.989725 -5.231168,10.32274 -10.462396,12.761449 -4.060331,1.892856 -3.601416,1.854559 -23.017331,1.920814 -9.694393,0.03308 -18.204145,-0.05349 -19.025378,-0.193557 z M 78.582766,86.77863 c 4.44223,-1.59086 7.020725,-4.342011 8.469205,-9.036302 0.470472,-1.524713 0.506049,-2.882118 0.484739,-18.494513 -0.02526,-18.509974 -0.02612,-18.520952 -1.705835,-21.758658 -1.718835,-3.313124 -4.80937,-5.571922 -8.772101,-6.411319 -2.761236,-0.584892 -33.054265,-0.602525 -35.79854,-0.02084 -5.048453,1.070091 -8.898385,4.74113 -10.036695,9.570325 -0.348673,1.479218 -0.418232,4.58046 -0.421641,18.798552 -0.0039,16.210987 0.0222,17.112189 0.544268,18.802448 1.074438,3.478628 3.355083,6.173343 6.606079,7.805472 2.920209,1.466062 3.438357,1.500255 21.847997,1.441769 L 76.787377,87.4216 Z"
       id="path1"
       transform="translate(532332.63,720663.91)" />
    <path
       style="fill:#301d67;fill-opacity:1;stroke:#301d67;stroke-width:0;stroke-linecap:round;stroke-linejoin:round;stroke-miterlimit:0;stroke-dasharray:none;stroke-opacity:1;paint-order:stroke fill markers"
       d="M 56.071358,76.676152 C 47.83658,75.08984 41.90487,68.456538 41.375979,60.242625 c -0.415891,-6.458969 3.067998,-13.165858 8.519652,-16.401316 2.939527,-1.744556 5.660734,-2.479028 9.214077,-2.486941 3.544308,-0.0079 6.227976,0.716247 9.218597,2.487471 2.424397,1.435872 5.485934,4.750084 6.74467,7.301315 4.416315,8.951094 0.861049,19.467872 -8.112601,23.997756 -3.156631,1.593462 -7.446803,2.198331 -10.889016,1.535242 z m 5.121096,-6.2438 c 5.86212,-1.111729 9.64217,-5.992476 9.324756,-12.039994 -0.351352,-6.694148 -6.28608,-11.54605 -12.96764,-10.601617 -2.421358,0.342256 -5.430415,1.883887 -6.874678,3.522104 -5.865601,6.65331 -2.631311,17.13182 5.856549,18.974149 2.183034,0.473839 2.823598,0.493815 4.661013,0.145358 z"
       id="path2"
       transform="translate(532332.63,720663.91)" />
    <path
       style="fill:#301d67;fill-opacity:1;stroke:#301d67;stroke-width:0;stroke-linecap:round;stroke-linejoin:round;stroke-miterlimit:0;stroke-dasharray:none;stroke-opacity:1;paint-order:stroke fill markers"
       d="m 75.596848,43.358453 c -0.945434,-0.576416 -1.709713,-1.970971 -1.709713,-3.119657 0,-0.942232 1.097968,-2.448087 2.231333,-3.060257 1.360992,-0.735119 2.845026,-0.425245 4.042086,0.844008 0.779527,0.82654 0.908134,1.160301 0.908134,2.356799 0,1.250889 -0.11002,1.503917 -1.072359,2.466256 -0.918899,0.918899 -1.245,1.072211 -2.278762,1.071326 -0.722264,-6.18e-4 -1.573325,-0.224739 -2.120719,-0.558475 z"
       id="path3"
       transform="translate(532332.63,720663.91)" />
  </g>
</svg>
