<?xml version="1.0" encoding="UTF-8"?>
<svg xmlns="http://www.w3.org/2000/svg" xmlns:xlink="http://www.w3.org/1999/xlink" viewBox="0 0 1930 1450.32">
  <defs>
    <style>
      .cls-1 {
        filter: url(#outer-glow-3);
      }

      .cls-1, .cls-2, .cls-3, .cls-4 {
        fill: none;
        stroke-miterlimit: 10;
        stroke-width: 5px;
      }

      .cls-1, .cls-2, .cls-4 {
        stroke: #fff;
      }

      .cls-5 {
        fill: #fff;
        stroke-width: 0px;
      }

      .cls-2 {
        filter: url(#outer-glow-1);
      }

      .cls-6 {
        opacity: .41;
      }

      .cls-3 {
        filter: url(#outer-glow-2);
        stroke: #e0aaff;
      }

      .cls-4 {
        filter: url(#outer-glow-4);
      }
    </style>
    <filter id="outer-glow-1" filterUnits="userSpaceOnUse">
      <feOffset dx="0" dy="0"/>
      <feGaussianBlur result="blur" stdDeviation="23"/>
      <feFlood flood-color="#fff" flood-opacity="1"/>
      <feComposite in2="blur" operator="in"/>
      <feComposite in="SourceGraphic"/>
    </filter>
    <filter id="outer-glow-2" filterUnits="userSpaceOnUse">
      <feOffset dx="0" dy="0"/>
      <feGaussianBlur result="blur-2" stdDeviation="23"/>
      <feFlood flood-color="#fff" flood-opacity="1"/>
      <feComposite in2="blur-2" operator="in"/>
      <feComposite in="SourceGraphic"/>
    </filter>
    <filter id="outer-glow-3" filterUnits="userSpaceOnUse">
      <feOffset dx="0" dy="0"/>
      <feGaussianBlur result="blur-3" stdDeviation="23"/>
      <feFlood flood-color="#fff" flood-opacity="1"/>
      <feComposite in2="blur-3" operator="in"/>
      <feComposite in="SourceGraphic"/>
    </filter>
    <filter id="outer-glow-4" filterUnits="userSpaceOnUse">
      <feOffset dx="0" dy="0"/>
      <feGaussianBlur result="blur-4" stdDeviation="23"/>
      <feFlood flood-color="#fff" flood-opacity="1"/>
      <feComposite in2="blur-4" operator="in"/>
      <feComposite in="SourceGraphic"/>
    </filter>
    <image id="image" width="1080" height="1080" xlink:href="../krolik.png"/>
    <image id="image-2" width="1080" height="1080" xlink:href="../gwiazda2.png"/>
  </defs>
  <g id="Warstwa_5" data-name="Warstwa 5">
    <image width="1920" height="1080" transform="translate(5 185.16)" xlink:href="../tło.png"/>
  </g>
  <g id="królik">
    <use class="cls-6" transform="translate(572.5 332.66) scale(.73)" xlink:href="#image"/>
  </g>
  <g id="obrecze">
    <circle class="cls-2" cx="965" cy="725.16" r="432.5"/>
    <path class="cls-3" d="m329.29,573.09c-.89,3.71-1.74,7.45-2.56,11.19"/>
    <path class="cls-1" d="m325.3,590.96c-1.56,7.47-2.99,14.98-4.3,22.54-2.87,16.67-5.11,33.57-6.68,50.65-1.04,11.15-1.79,22.38-2.25,33.69"/>
    <path class="cls-4" d="m311.8,745.32c.37,12.21,1.08,24.33,2.11,36.36,28.65,334.46,309.21,596.98,651.09,596.98,360.92,0,653.5-292.58,653.5-653.5S1325.92,71.66,965,71.66c-281.52,0-521.45,178.01-613.4,427.6h0c-2.66,7.21-5.19,14.48-7.59,21.8"/>
    <g>
      <path class="cls-5" d="m351.6,499.27h0c-5.26-1.54-10.82-2.37-16.57-2.37-32.74-.03-59.22,26.42-59.21,59.15,0,27.85,19.25,51.19,45.18,57.45,4.46,1.08,9.12,1.66,13.91,1.66,32.73.02,59.23-26.44,59.22-59.15-.01-26.9-17.95-49.58-42.53-56.74Zm18.29,71.36c-.11,12.05-8.55,20.3-20.61,20.31-4.79.01-9.57.01-14.36.01-3.21,0-6.41.01-9.62.01-1.74,0-3.49,0-5.23-.02-11.25-.07-19.82-8.36-19.99-19.6-.16-10.33-.15-20.67-.01-31,.15-10.51,8.52-18.98,19.04-19.18,8.3-.15,16.6-.19,24.9-.1,2.25.03,4.51.06,6.76.11,10.8.22,19.04,8.79,19.12,19.6.08,9.96.09,19.91,0,29.86Z"/>
      <path class="cls-5" d="m363.23,541.5c-.01-1.29-.11-2.62-.42-3.88-1.43-5.91-6.55-9.84-12.96-9.87-2.67-.02-5.33-.02-7.99-.02-7.24-.01-14.47.02-21.71.03-7.74.01-13.41,5.62-13.45,13.34-.04,9.84-.07,19.68-.07,29.52,0,7.94,5.61,13.59,13.53,13.65,2.19.01,4.38.01,6.57.01,2.76,0,5.52-.01,8.28-.01,4.84.01,9.68.02,14.52,0,8.14-.03,13.67-5.47,13.71-13.57.04-9.73.02-19.47-.01-29.2Zm-28.14,32.51c-2.03,0-3.98-.32-5.8-.92-7.19-2.35-12.3-8.97-12.32-16.87,0-10.22,7.89-18.2,18.04-18.22,1.22,0,2.42.12,3.58.36,8.16,1.67,14.39,8.98,14.41,17.63.01,9.93-8.03,18.03-17.91,18.02Zm18.14-32.96c-2.07-.07-3.65-1.75-3.61-3.83.03-2.07,1.67-3.69,3.74-3.7,2.13,0,3.82,1.7,3.79,3.83-.04,2.12-1.79,3.78-3.92,3.7Z"/>
      <path class="cls-5" d="m346.34,556.17c-.06,6.29-5.28,11.35-11.59,11.22-1.37-.03-2.68-.3-3.88-.76-4.31-1.67-7.32-5.86-7.27-10.75.06-6.31,5.24-11.31,11.59-11.22.52.01,1.03.05,1.53.13,5.49.83,9.68,5.63,9.62,11.38Z"/>
    </g>
    <g>
      <path class="cls-5" d="m314.32,664.15c-.9-.05-1.81-.07-2.72-.07-32.86-.04-59.31,26.02-59.41,58.55-.1,32.57,26.28,59.03,58.93,59.12.93,0,1.86-.02,2.79-.07,31.14-1.37,56.04-27.15,56.09-58.71.04-31.54-24.67-57.36-55.68-58.82Zm34.79,76.02c-.09,1.17-.88,2.75-1.84,3.29-4.72,2.68-9.61,5.05-14.42,7.56-2.28,1.18-3.89.67-5-1.68-.63-1.32-1.44-2.55-2.19-3.86,2.14-1.12,4.04-2.11,5.95-3.1-.04-.21-.07-.43-.11-.64-.83,0-1.76-.25-2.47.03-5.75,2.29-11.49,3.48-17.23,3.55-6.11.09-12.23-1.12-18.34-3.65-.66-.28-1.51-.11-2.27-.15-.07.27-.14.54-.21.82,1.86.97,3.73,1.95,5.99,3.12-1.11,1.84-2.11,3.73-3.38,5.43-.37.5-1.7.86-2.25.59-5.59-2.71-11.14-5.52-16.62-8.45-.67-.36-1.17-1.56-1.24-2.41-1.17-14.65,2.49-28.07,10.47-40.34.55-.86,1.48-1.7,2.42-2.03,3.91-1.37,7.89-2.56,11.85-3.77,1.62-.5,2.91-.21,3.47,1.65.48,1.58,1.52,1.91,3.18,1.84,2.4-.1,4.8-.15,7.2-.13,1.84,0,3.69.05,5.53.12,1.72.06,2.86-.2,3.37-1.97.49-1.71,1.73-2.01,3.25-1.53,4.06,1.27,8.13,2.49,12.13,3.9.92.33,1.8,1.22,2.36,2.08,7.89,12.08,11.55,25.3,10.4,39.73Z"/>
      <path class="cls-5" d="m330.64,725.85c0,4.2-3.03,7.67-6.69,7.67-3.65,0-6.82-3.54-6.81-7.62,0-4.14,3.08-7.6,6.77-7.6,3.79,0,6.74,3.3,6.73,7.55Z"/>
      <path class="cls-5" d="m305.49,725.83c0,4.11-3.11,7.66-6.76,7.69-3.68.03-6.78-3.43-6.8-7.58-.01-4.23,2.95-7.61,6.7-7.64,3.71-.03,6.85,3.43,6.86,7.53Z"/>
    </g>
  </g>
  <g id="krolik_gora" data-name="krolik gora">
    <use transform="translate(868 185.16) scale(.18)" xlink:href="#image"/>
  </g>
  <g id="gwiazdki">
    <use transform="translate(897.75 1091.16) scale(.12)" xlink:href="#image-2"/>
    <use transform="translate(245 782.41) rotate(-8.23) scale(.12)" xlink:href="#image-2"/>
    <use transform="translate(341.62 356.16) rotate(25.37) scale(.12)" xlink:href="#image-2"/>
  </g>
  <g id="Warstwa_2" data-name="Warstwa 2">
    <g>
      <path class="cls-5" d="m819.2,699.74h-51.95c-4.26,0-7.87-2.46-7.87-6.88,0-2.54,1.39-5,3.69-6.8l19.99-15.73c9.1-7.29,13.03-10,15.08-11.47-2.95.25-7.95.33-18.85.33h-21.96l10.82-14.26h50.56c4.26,0,7.87,2.46,7.87,6.88,0,2.46-1.39,5-3.69,6.72l-20.24,16.06c-9.01,7.13-12.78,9.92-14.91,11.39,2.7-.16,13.19-.33,21.8-.33h19.91l-10.24,14.09Z"/>
      <path class="cls-5" d="m858.44,699.74l10.24-14.09h13.77c3.28,0,7.13,0,9.75.16-1.48-1.97-3.77-5.33-5.57-7.95l-9.83-14.5-25.73,36.38h-20.08l35.15-49.57c2.29-3.2,5.65-6.15,10.98-6.15s8.44,2.7,10.82,6.15l34.25,49.57h-63.75Z"/>
      <path class="cls-5" d="m1006.01,699.74h-22.7l-12.21-14.5h-26.06v14.5h-16.96v-28.02h47.69c5.24,0,9.34-2.38,9.34-6.15,0-4.26-3.52-6.39-9.34-6.39h-47.69l11.06-14.26h35.23c12.45,0,28.19,3.93,28.19,19.58,0,8.52-5.33,15.57-14.34,17.37,1.88,1.39,3.93,3.36,7.7,7.21l10.08,10.65Z"/>
      <path class="cls-5" d="m1035.26,699.74l10.24-14.09h13.77c3.28,0,7.13,0,9.75.16-1.48-1.97-3.77-5.33-5.57-7.95l-9.83-14.5-25.73,36.38h-20.08l35.15-49.57c2.29-3.2,5.65-6.15,10.98-6.15s8.44,2.7,10.82,6.15l34.25,49.57h-63.75Z"/>
      <path class="cls-5" d="m1162.67,699.74h-51.95c-4.26,0-7.87-2.46-7.87-6.88,0-2.54,1.39-5,3.69-6.8l19.99-15.73c9.1-7.29,13.03-10,15.08-11.47-2.95.25-7.95.33-18.85.33h-21.96l10.82-14.26h50.56c4.26,0,7.87,2.46,7.87,6.88,0,2.46-1.39,5-3.69,6.72l-20.24,16.06c-9.01,7.13-12.78,9.92-14.91,11.39,2.7-.16,13.19-.33,21.8-.33h19.91l-10.24,14.09Z"/>
      <path class="cls-5" d="m661.39,798.06h-51.95c-4.26,0-7.87-2.46-7.87-6.88,0-2.54,1.39-5,3.69-6.8l19.99-15.73c9.1-7.29,13.03-10,15.08-11.47-2.95.25-7.95.33-18.85.33h-21.96l10.82-14.26h50.56c4.26,0,7.87,2.46,7.87,6.88,0,2.46-1.39,5-3.69,6.72l-20.24,16.06c-9.01,7.13-12.78,9.91-14.91,11.39,2.7-.16,13.19-.33,21.8-.33h19.91l-10.24,14.09Z"/>
      <path class="cls-5" d="m700.64,798.06l10.24-14.09h13.77c3.28,0,7.13,0,9.75.16-1.48-1.97-3.77-5.33-5.57-7.95l-9.83-14.5-25.73,36.38h-20.08l35.15-49.57c2.29-3.2,5.65-6.15,10.98-6.15s8.44,2.7,10.82,6.15l34.25,49.57h-63.75Z"/>
      <path class="cls-5" d="m831.74,783.97l-10.9,14.09h-27.53c-19.01,0-33.02-12.04-33.02-27.94s14.01-26.88,33.02-26.88h38.43l-10.9,14.26h-27.53c-9.18,0-16.06,5.49-16.06,13.36s6.8,13.11,16.06,13.11h38.43Z"/>
      <path class="cls-5" d="m895.23,798.06h-51.95c-4.26,0-7.87-2.46-7.87-6.88,0-2.54,1.39-5,3.69-6.8l19.99-15.73c9.1-7.29,13.03-10,15.08-11.47-2.95.25-7.95.33-18.85.33h-21.96l10.82-14.26h50.56c4.26,0,7.87,2.46,7.87,6.88,0,2.46-1.39,5-3.69,6.72l-20.24,16.06c-9.01,7.13-12.78,9.91-14.91,11.39,2.7-.16,13.19-.33,21.8-.33h19.91l-10.24,14.09Z"/>
      <path class="cls-5" d="m988.81,743.24l-32.53,36.71v18.11h-17.04v-18.19l-33.43-36.63h21.8l13.11,15.24c1.72,1.97,6.31,6.96,7.46,8.6,1.06-1.56,2.95-3.93,6.88-8.68l12.45-15.16h21.3Z"/>
      <path class="cls-5" d="m1040.59,796.01l-33.6-30.15v32.2h-15.4v-45.48c0-7.29,4.42-10.24,9.26-10.24,2.05,0,4.1.49,6.8,2.95l33.6,30.15v-32.2h15.49v45.39c0,7.29-4.42,10.32-9.34,10.32-2.13,0-4.18-.49-6.8-2.95Z"/>
      <path class="cls-5" d="m1087.62,798.06l10.24-14.09h13.77c3.28,0,7.13,0,9.75.16-1.48-1.97-3.77-5.33-5.57-7.95l-9.83-14.5-25.73,36.38h-20.07l35.15-49.57c2.29-3.2,5.65-6.15,10.98-6.15s8.44,2.7,10.82,6.15l34.25,49.57h-63.75Z"/>
      <path class="cls-5" d="m1195.28,763.65c4.83,8.44,6.96,12.54,8.85,16.39,1.8-3.85,3.93-7.87,8.77-16.31l8.77-15.57c1.97-3.52,4.92-5.82,9.34-5.82s8.03,2.46,9.5,7.54l13.85,48.18h-16.88l-5.16-19.09c-1.72-6.23-2.87-10.65-3.77-15.08-1.8,3.85-3.85,8.03-7.62,15.16l-7.37,13.77c-2.87,5.41-5.65,6.15-9.75,6.15s-6.88-.74-9.75-6.15l-7.37-13.85c-4.02-7.54-5.98-11.39-7.7-15.08-.82,4.34-2.05,8.93-3.69,15.08l-5.16,19.09h-16.63l14.17-48.18c1.48-5.08,5.33-7.54,9.59-7.54s7.29,2.21,9.26,5.82l8.77,15.49Z"/>
      <path class="cls-5" d="m1330.8,743.24l-32.53,36.71v18.11h-17.04v-18.19l-33.43-36.63h21.8l13.11,15.24c1.72,1.97,6.31,6.96,7.46,8.6,1.07-1.56,2.95-3.93,6.88-8.68l12.46-15.16h21.3Z"/>
    </g>
  </g>
</svg>